#N canvas 356 259 1328 805 10;
#X text 8 13 monome test harness;
#X msg 488 392 pollintervall 1;
#X msg 599 521 close;
#X obj 283 213 packOSC;
#X obj 259 589 unpackOSC;
#X msg 478 303 devices;
#X text 536 302 print available devices (wait for it...);
#X msg 489 328 ports;
#X text 535 327 list available ports on right outlet;
#X obj 455 519 s com;
#X obj 292 474 r com;
#X obj 283 497 comport;
#X msg 219 55 /grid/led/all 0;
#X msg 491 415 baud 115200;
#X msg 492 436 baud 9600;
#X obj 351 534 print;
#X msg 464 274 help;
#X msg 501 467 info;
#X obj 614 492 tgl 15 0 empty empty empty 0 -6 0 8 -241291 -250685
-1 1 1;
#X msg 633 493 verbose \$1;
#X msg 600 460 devicename /dev/ttyUSB0 \, baud 115200 \, pollintervall
1;
#X msg 350 53 /grid/led/set 1 1 0;
#X obj 327 301 print encoded;
#X obj 296 278 t a a;
#X obj 283 248 slipenc 65536;
#X obj 260 562 slipdec 65536;
#X msg 350 77 /grid/led/set 1 1 1;
#X msg 350 106 /grid/led/level all 1;
#X msg 350 131 /grid/led/level all 0;
#X msg 218 77 /grid/led/all 1;
#X msg 128 147 /led/all 1;
#X msg 125 120 /grid/led/col 0 0 232;
#X obj 212 533 print;
#X text 79 276 /grid/led/all 0;
#X text 79 307 /grid/led/all 1;
#X msg 38 307 145;
#X msg 37 277 144;
#X connect 1 0 9 0;
#X connect 2 0 9 0;
#X connect 3 0 24 0;
#X connect 5 0 9 0;
#X connect 7 0 9 0;
#X connect 10 0 11 0;
#X connect 11 0 25 0;
#X connect 11 0 32 0;
#X connect 11 1 15 0;
#X connect 12 0 3 0;
#X connect 13 0 9 0;
#X connect 14 0 9 0;
#X connect 16 0 9 0;
#X connect 17 0 9 0;
#X connect 18 0 19 0;
#X connect 19 0 9 0;
#X connect 20 0 9 0;
#X connect 21 0 3 0;
#X connect 23 1 22 0;
#X connect 24 0 11 0;
#X connect 24 0 23 0;
#X connect 25 0 4 0;
#X connect 26 0 3 0;
#X connect 27 0 3 0;
#X connect 28 0 3 0;
#X connect 29 0 3 0;
#X connect 30 0 3 0;
#X connect 31 0 3 0;
#X connect 35 0 11 0;
#X connect 36 0 11 0;
