#N canvas 741 103 962 489 10;
#X text 8 13 monome test harness;
#X obj 23 380 udpsend 10145;
#X msg 97 126 /monome/grid/led/all 1;
#X obj 41 349 packOSC;
#X msg 22 63 connect localhost 10145;
#X text 197 63 port of serialosc;
#X msg 41 90 disconnect;
#X msg 97 146 /monome/grid/led/all 0;
#X msg 115 190 /monome/grid/led/set 0 0 0;
#X msg 115 171 /monome/grid/led/set 0 0 1;
#X text 266 134 all on/off;
#X text 312 181 single (0 \, 0) on/off;
#X obj 600 109 udpreceive;
#X msg 600 55 status;
#X text 693 82 change port to listen on;
#X text 653 56 get status on right outlet;
#X msg 614 81 port 8000;
#X obj 600 175 unpackOSC;
#X obj 600 197 print;
#X msg 129 216 /monome/grid/led/row 0 0 255 255;
#X msg 129 236 /monome/grid/led/row 0 5 255 255;
#X text 373 228 rows;
#X text 373 228 rows;
#X text 394 273 cols;
#X msg 145 262 /monome/grid/led/col 0 0 255 255;
#X msg 150 284 /monome/grid/led/col 13 3 255 255;
#X obj 22 36 loadbang;
#X connect 2 0 3 0;
#X connect 3 0 1 0;
#X connect 4 0 1 0;
#X connect 6 0 1 0;
#X connect 7 0 3 0;
#X connect 8 0 3 0;
#X connect 9 0 3 0;
#X connect 12 0 17 0;
#X connect 13 0 12 0;
#X connect 16 0 12 0;
#X connect 17 0 18 0;
#X connect 19 0 3 0;
#X connect 20 0 3 0;
#X connect 24 0 3 0;
#X connect 25 0 3 0;
#X connect 26 0 4 0;
#X connect 26 0 16 0;
