#N canvas 791 50 1062 898 10;
#X obj 456 360 shell;
#X msg 343 289 1;
#X obj 690 35 loadbang;
#X obj 690 64 bng 15 250 50 0 empty empty empty 17 7 0 10 -262144 -1
-1;
#X obj 343 351 s led;
#X obj 456 471 print STDOUT;
#X obj 342 89 r aux;
#X text 18 16 Monome Installer;
#X obj 488 437 s done;
#X obj 488 382 t b;
#X msg 223 146 0;
#X obj 343 159 spigot 1;
#X obj 220 107 r done;
#X msg 456 274 cd $( cd "$( dirname "$BASH_SOURCE[0]" )" && pwd ) &&
./install.sh, f 74;
#X msg 463 336 cd $( cd "$( dirname "$BASH_SOURCE[0]" )" && pwd ) &&
./uninstall.sh, f 78;
#X obj 424 532 s screenLine3;
#X text 16 39 This patch installs serialosc and libmonome on your Organelle
OS;
#X obj 456 220 t b;
#X msg 424 245 Installing...;
#X msg 159 468 \; screenLine1 \; screenLine2 \; screenLine3 ... Complete!
\; screenLine4 Unplug/Plug in Grid \; screenLine5 \;;
#X obj 641 565 serialosc;
#X obj 641 628 s screenLine5;
#X obj 20 80 bng 15 250 50 0 empty empty uninstall 17 7 0 10 -262144
-1 -1;
#X msg 732 548 /monome/grid/led/set \$1 \$2 \$3;
#X obj 734 582 routeOSC /monome/grid/key;
#X obj 795 669 s screenLine3;
#X obj 751 622 bng 15 250 50 0 empty empty empty 17 7 0 10 -262144
-1 -1;
#X msg 690 98 \; screenLine1 serialosc installer \; screenLine2 \;
screenLine3 Press AUX to start \; screenLine4 \; screenLine5 \;;
#X msg 785 642 Installed;
#X msg 675 481 /monome/grid/led/all 1;
#X obj 675 455 r on-serialosc-load;
#X connect 0 0 5 0;
#X connect 0 0 15 0;
#X connect 0 1 9 0;
#X connect 1 0 4 0;
#X connect 2 0 3 0;
#X connect 3 0 27 0;
#X connect 6 0 11 0;
#X connect 9 0 8 0;
#X connect 9 0 20 1;
#X connect 10 0 11 1;
#X connect 10 0 4 0;
#X connect 11 0 1 0;
#X connect 11 0 17 0;
#X connect 12 0 10 0;
#X connect 12 0 19 0;
#X connect 13 0 0 0;
#X connect 14 0 0 0;
#X connect 17 0 13 0;
#X connect 17 0 18 0;
#X connect 18 0 15 0;
#X connect 20 0 21 0;
#X connect 20 0 24 0;
#X connect 20 0 26 0;
#X connect 22 0 14 0;
#X connect 23 0 20 0;
#X connect 24 0 23 0;
#X connect 26 0 28 0;
#X connect 28 0 25 0;
#X connect 29 0 20 0;
#X connect 30 0 29 0;
