#N canvas 549 288 1104 648 10;
#X obj 460 367 shell;
#X msg 343 289 1;
#X obj 690 27 loadbang;
#X obj 690 59 bng 15 250 50 0 empty empty empty 17 7 0 10 -262144 -1
-1;
#X obj 343 351 s led;
#X obj 493 458 print STDOUT;
#X obj 342 89 r aux;
#X text 18 16 Monome Installer;
#X obj 522 390 bng 15 250 50 0 empty empty empty 17 7 0 10 -262144
-1 -1;
#X obj 492 412 s done;
#X obj 492 390 t b;
#X msg 220 129 0;
#X obj 343 159 spigot 1;
#X obj 220 107 r done;
#X msg 690 98 \; screenLine1 Monome Installer \; screenLine2 \; screenLine3
Press AUX to start \; screenLine4 \; screenLine5 \;;
#X msg 456 285 cd $( cd "$( dirname "$BASH_SOURCE[0]" )" && pwd ) &&
./install.sh, f 74;
#X msg 469 310 cd $( cd "$( dirname "$BASH_SOURCE[0]" )" && pwd ) &&
./uninstall.sh, f 78;
#X obj 460 503 s screenLine3;
#X text 16 39 This patch installs serialosc and libmonome on your Organelle
OS;
#X obj 456 260 t b;
#X msg 159 468 \; screenLine2 ... Complete! \; screenLine3 Unplug/Plug
in Monome \; screenLine4 \; screenLine5 \;;
#X connect 0 0 5 0;
#X connect 0 0 17 0;
#X connect 0 1 10 0;
#X connect 1 0 4 0;
#X connect 2 0 3 0;
#X connect 3 0 14 0;
#X connect 6 0 12 0;
#X connect 8 0 9 0;
#X connect 10 0 9 0;
#X connect 11 0 12 1;
#X connect 11 0 4 0;
#X connect 12 0 1 0;
#X connect 12 0 19 0;
#X connect 13 0 11 0;
#X connect 13 0 20 0;
#X connect 15 0 0 0;
#X connect 16 0 0 0;
#X connect 19 0 15 0;
