#N canvas 315 101 1564 876 10;
#X msg 1178 90 /monome/grid/led/all 1;
#X msg 641 605 disconnect;
#X msg 1178 110 /monome/grid/led/all 0;
#X msg 1178 154 /monome/grid/led/set 0 0 0;
#X msg 1178 135 /monome/grid/led/set 0 0 1;
#X text 1351 91 all on/off;
#X text 1376 134 single (0 \, 0) on/off;
#X obj 809 704 udpreceive;
#X obj 809 726 unpackOSC;
#X msg 1178 180 /monome/grid/led/row 0 0 255 255;
#X msg 1178 200 /monome/grid/led/row 0 5 255 255;
#X text 1415 180 rows;
#X text 1413 227 cols;
#X msg 1178 226 /monome/grid/led/col 0 0 255 255;
#X msg 1178 248 /monome/grid/led/col 13 3 255 255;
#X obj 809 800 outlet;
#X obj 442 63 bng 15 250 50 0 empty empty empty 17 7 0 10 -262144 -1
-1;
#X msg 627 579 connect localhost \$1;
#X msg 809 679 port \$1;
#X obj 627 694 udpsend;
#X obj 442 19 inlet reset;
#X msg 1178 325 /sys/rotation 180;
#X msg 1178 305 /sys/rotation 90;
#X msg 1178 284 /sys/rotation 0;
#X msg 1178 346 /sys/rotation 270;
#X obj 442 39 t b;
#X obj 115 545 print;
#X obj 590 443 shell;
#X obj 10 37 inlet oscmessage;
#X floatatom 599 468 7 0 0 0 - - -, f 7;
#X obj 627 526 i;
#X floatatom 670 553 6 0 0 1 serialosc_host_port - -, f 6;
#X text 466 63 start serialosc-device;
#X text 648 731 app port;
#X obj 646 659 packOSC;
#X obj 10 133 s oscsend;
#X obj 860 750 s oscdump;
#X obj 154 497 tgl 15 0 empty empty print_incoming_osc_messages 17
7 0 10 -4034 -1 -1 0 1;
#X obj 115 519 spigot;
#X obj 115 475 r oscdump;
#X obj 1178 505 s oscsend;
#X text 1296 285 rotation;
#X obj 646 639 r oscsend;
#X obj 1244 431 unpackOSC;
#X obj 1244 454 print;
#X text 1360 410 print sys info;
#X msg 811 643 /sys/port \$1;
#X msg 608 731 8001;
#X msg 1178 388 /sys/info localhost 8779;
#X obj 1244 409 udpreceive 8779;
#X obj 590 760 s on-serialosc-load;
#X msg 114 78 0;
#X msg 63 69 1;
#X obj 10 95 spigot;
#X obj 590 499 t b b b f b;
#X msg 590 411 netstat -lup | grep serialosc | cut -d'*' -f2 | tr -d
'a-z-:' | xargs, f 73;
#X obj 442 145 shell;
#X msg 538 309 serialoscd;
#X obj 538 330 shell;
#X msg 474 186 pkill -f serialosc-detector;
#X msg 506 247 pkill -f serialosc-devic;
#X msg 442 125 pkill -f serialoscd, f 21;
#X obj 474 207 shell;
#X obj 506 268 shell;
#X text 600 395 get serialosc-device port;
#X text 557 290 start serialoscd;
#X text 525 228 kill serialosc-devic;
#X text 493 166 kill serialosc-detector;
#X text 452 106 kill serialoscd;
#X text 1175 62 monome grid test commands;
#X text 452 90 kill any prior serialosc;
#X obj 474 167 bng 15 250 50 0 empty empty empty 17 7 0 10 -262144
-1 -1;
#X obj 506 228 bng 15 250 50 0 empty empty empty 17 7 0 10 -262144
-1 -1;
#X obj 539 289 bng 15 250 50 0 empty empty empty 17 7 0 10 -262144
-1 -1;
#X obj 590 376 bng 15 250 50 0 empty empty empty 17 7 0 10 -262144
-1 -1;
#X obj 733 304 delay 150;
#X text 10 7 monome serialosc interface v1.2;
#X connect 0 0 40 0;
#X connect 1 0 19 0;
#X connect 2 0 40 0;
#X connect 3 0 40 0;
#X connect 4 0 40 0;
#X connect 7 0 8 0;
#X connect 8 0 15 0;
#X connect 8 0 36 0;
#X connect 9 0 40 0;
#X connect 10 0 40 0;
#X connect 13 0 40 0;
#X connect 14 0 40 0;
#X connect 16 0 51 0;
#X connect 16 0 61 0;
#X connect 17 0 19 0;
#X connect 18 0 7 0;
#X connect 20 0 25 0;
#X connect 21 0 40 0;
#X connect 22 0 40 0;
#X connect 23 0 40 0;
#X connect 24 0 40 0;
#X connect 25 0 16 0;
#X connect 27 0 29 0;
#X connect 27 0 54 0;
#X connect 28 0 53 0;
#X connect 30 0 17 0;
#X connect 30 0 31 0;
#X connect 34 0 19 0;
#X connect 37 0 38 1;
#X connect 38 0 26 0;
#X connect 39 0 38 0;
#X connect 42 0 34 0;
#X connect 43 0 44 0;
#X connect 46 0 34 0;
#X connect 47 0 18 0;
#X connect 47 0 46 0;
#X connect 48 0 40 0;
#X connect 49 0 43 0;
#X connect 51 0 53 1;
#X connect 52 0 53 1;
#X connect 53 0 35 0;
#X connect 54 0 50 0;
#X connect 54 1 47 0;
#X connect 54 1 52 0;
#X connect 54 2 30 0;
#X connect 54 3 30 1;
#X connect 54 4 1 0;
#X connect 55 0 27 0;
#X connect 56 1 71 0;
#X connect 57 0 58 0;
#X connect 59 0 62 0;
#X connect 60 0 63 0;
#X connect 61 0 56 0;
#X connect 62 1 72 0;
#X connect 63 1 73 0;
#X connect 71 0 59 0;
#X connect 72 0 60 0;
#X connect 73 0 57 0;
#X connect 73 0 75 0;
#X connect 74 0 55 0;
#X connect 75 0 74 0;
