#N canvas 583 468 1048 591 10;
#X msg 115 276 /monome/grid/led/all 1;
#X obj 64 456 packOSC;
#X msg 98 196 disconnect;
#X msg 115 296 /monome/grid/led/all 0;
#X msg 133 340 /monome/grid/led/set 0 0 0;
#X msg 133 321 /monome/grid/led/set 0 0 1;
#X text 284 284 all on/off;
#X text 330 331 single (0 \, 0) on/off;
#X obj 296 155 udpreceive;
#X obj 295 176 unpackOSC;
#X msg 147 366 /monome/grid/led/row 0 0 255 255;
#X msg 147 386 /monome/grid/led/row 0 5 255 255;
#X text 391 378 rows;
#X text 391 378 rows;
#X text 412 423 cols;
#X msg 163 412 /monome/grid/led/col 0 0 255 255;
#X msg 168 434 /monome/grid/led/col 13 3 255 255;
#X obj 14 73 inlet;
#X obj 281 213 outlet;
#X text 8 13 monome serialosc interface;
#X obj 385 45 bng 15 250 50 0 empty empty empty 17 7 0 10 -262144 -1
-1;
#X obj 565 189 shell;
#X obj 580 10 loadbang;
#X obj 580 40 bng 15 250 50 0 empty empty empty 17 7 0 10 -262144 -1
-1;
#X obj 565 92 delay 100;
#X text 599 40 start server;
#X text 768 120 start server;
#X text 781 147 stop server;
#X msg 80 141 10145;
#X msg 80 168 connect localhost \$1;
#X text 127 140 server port;
#X msg 296 102 8000;
#X text 341 101 app port;
#X msg 296 129 port \$1;
#X obj 565 92 delay 100;
#X obj 527 245 delay 250;
#X text 408 37 connect;
#X obj 42 496 udpsend;
#X text 112 248 monome test commands;
#X obj 636 224 print;
#X obj 763 19 inlet reset;
#X msg 615 481 /sys/rotation 180;
#X msg 615 461 /sys/rotation 90;
#X msg 616 440 /sys/rotation 0;
#X msg 614 502 /sys/rotation 270;
#X obj 760 52 t b;
#X obj 81 70 s on-serialosc-connect;
#X obj 70 44 t b;
#X msg 565 121 ./start-serialosc-server.sh;
#X msg 585 146 ./stop-serialosc-server.sh;
#X msg 616 400 /sys/port;
#X connect 0 0 1 0;
#X connect 1 0 37 0;
#X connect 2 0 37 0;
#X connect 3 0 1 0;
#X connect 4 0 1 0;
#X connect 5 0 1 0;
#X connect 8 0 9 0;
#X connect 9 0 18 0;
#X connect 10 0 1 0;
#X connect 11 0 1 0;
#X connect 15 0 1 0;
#X connect 16 0 1 0;
#X connect 17 0 1 0;
#X connect 20 0 28 0;
#X connect 20 0 31 0;
#X connect 21 0 39 0;
#X connect 22 0 23 0;
#X connect 23 0 24 0;
#X connect 23 0 35 0;
#X connect 23 0 2 0;
#X connect 23 0 49 0;
#X connect 24 0 48 0;
#X connect 28 0 29 0;
#X connect 29 0 37 0;
#X connect 29 0 47 0;
#X connect 31 0 33 0;
#X connect 33 0 8 0;
#X connect 35 0 20 0;
#X connect 40 0 45 0;
#X connect 41 0 1 0;
#X connect 42 0 1 0;
#X connect 43 0 1 0;
#X connect 44 0 1 0;
#X connect 45 0 23 0;
#X connect 47 0 46 0;
#X connect 48 0 21 0;
#X connect 49 0 21 0;
#X connect 50 0 1 0;
