#N canvas 330 351 1420 606 10;
#X msg 454 145 /monome/grid/led/all 1;
#X msg 223 275 disconnect;
#X msg 454 165 /monome/grid/led/all 0;
#X msg 454 209 /monome/grid/led/set 0 0 0;
#X msg 454 190 /monome/grid/led/set 0 0 1;
#X text 627 146 all on/off;
#X text 652 189 single (0 \, 0) on/off;
#X obj 13 319 udpreceive;
#X obj 13 341 unpackOSC;
#X msg 454 235 /monome/grid/led/row 0 0 255 255;
#X msg 454 255 /monome/grid/led/row 0 5 255 255;
#X text 691 235 rows;
#X text 689 282 cols;
#X msg 454 281 /monome/grid/led/col 0 0 255 255;
#X msg 454 303 /monome/grid/led/col 13 3 255 255;
#X obj 13 365 outlet;
#X text 448 15 monome serialosc interface;
#X obj 854 156 shell;
#X obj 854 63 bng 15 250 50 0 empty empty empty 17 7 0 10 -262144 -1
-1;
#X msg 212 251 connect localhost \$1;
#X msg 13 252 port \$1;
#X obj 212 366 udpsend;
#X obj 854 19 inlet reset;
#X msg 454 380 /sys/rotation 180;
#X msg 454 360 /sys/rotation 90;
#X msg 454 339 /sys/rotation 0;
#X msg 454 401 /sys/rotation 270;
#X obj 854 39 t b;
#X obj 854 178 print STDOUT;
#X obj 857 540 print;
#X msg 854 135 kill -9 `pidof serialosc-device`;
#X msg 856 330 netstat -lup | grep serialosc-dev | cut -d'*' -f2 |
cut -d ':' -f2, f 66;
#X obj 856 352 shell;
#X obj 10 37 inlet oscmessage;
#X floatatom 865 377 7 0 0 0 - - -, f 7;
#X obj 856 399 s serialosc-port;
#X obj 175 149 r serialosc-port;
#X obj 212 198 i;
#X floatatom 255 215 6 0 0 1 serialosc_host_port - -, f 6;
#X text 873 63 start serialosc-device;
#X obj 947 173 sel 0;
#X obj 855 259 shell;
#X obj 855 281 print STDOUT;
#X obj 948 276 sel 0;
#X text 1096 135 1 stop all instances of serialosc-device;
#X text 1092 238 2 start serialosc-device;
#X text 1092 312 3 get serialosc-device port;
#X text 53 208 app port;
#X obj 231 340 packOSC;
#X obj 10 116 s oscsend;
#X obj 64 365 s oscdump;
#X obj 896 492 tgl 15 0 empty empty print_incoming_osc_messages 17
7 0 10 -4034 -1 -1 0 1;
#X obj 857 514 spigot;
#X obj 857 470 r oscdump;
#X obj 454 560 s oscsend;
#X text 572 340 rotation;
#X msg 855 238 serialosc-device /dev/ttyUSB0 &;
#X obj 231 320 r oscsend;
#X text 451 117 monome test commands;
#X text 173 127 connect to serialosc-device;
#X obj 520 486 unpackOSC;
#X obj 520 509 print;
#X text 636 465 print sys info;
#X obj 997 174 tgl 15 0 empty empty auto_start_after_stop 17 7 0 10
-4034 -1 -1 1 1;
#X obj 947 194 spigot;
#X msg 88 252 /sys/port \$1;
#X msg 13 208 8001;
#X msg 454 443 /sys/info localhost 8779;
#X obj 520 464 udpreceive 8779;
#X obj 15 150 s on-serialosc-load;
#X msg 997 155 1;
#X msg 111 78 0;
#X msg 144 78 1;
#X obj 10 95 spigot;
#X obj 175 171 t b b b f b;
#X connect 0 0 54 0;
#X connect 1 0 21 0;
#X connect 2 0 54 0;
#X connect 3 0 54 0;
#X connect 4 0 54 0;
#X connect 7 0 8 0;
#X connect 8 0 15 0;
#X connect 8 0 50 0;
#X connect 9 0 54 0;
#X connect 10 0 54 0;
#X connect 13 0 54 0;
#X connect 14 0 54 0;
#X connect 17 0 28 0;
#X connect 17 1 40 0;
#X connect 18 0 30 0;
#X connect 18 0 71 0;
#X connect 19 0 21 0;
#X connect 20 0 7 0;
#X connect 22 0 27 0;
#X connect 23 0 54 0;
#X connect 24 0 54 0;
#X connect 25 0 54 0;
#X connect 26 0 54 0;
#X connect 27 0 18 0;
#X connect 27 0 70 0;
#X connect 30 0 17 0;
#X connect 31 0 32 0;
#X connect 32 0 34 0;
#X connect 32 0 35 0;
#X connect 33 0 73 0;
#X connect 36 0 74 0;
#X connect 37 0 19 0;
#X connect 37 0 38 0;
#X connect 40 0 64 0;
#X connect 41 0 42 0;
#X connect 41 1 43 0;
#X connect 43 0 31 0;
#X connect 48 0 21 0;
#X connect 51 0 52 1;
#X connect 52 0 29 0;
#X connect 53 0 52 0;
#X connect 56 0 41 0;
#X connect 57 0 48 0;
#X connect 60 0 61 0;
#X connect 63 0 64 1;
#X connect 64 0 56 0;
#X connect 65 0 48 0;
#X connect 66 0 20 0;
#X connect 66 0 65 0;
#X connect 67 0 54 0;
#X connect 68 0 60 0;
#X connect 70 0 63 0;
#X connect 71 0 73 1;
#X connect 72 0 73 1;
#X connect 73 0 49 0;
#X connect 74 0 69 0;
#X connect 74 1 66 0;
#X connect 74 1 72 0;
#X connect 74 2 37 0;
#X connect 74 3 37 1;
#X connect 74 4 1 0;
