#N canvas 5 50 816 527 10;
#X msg 104 225 /monome/grid/led/all 1;
#X obj 44 466 packOSC;
#X msg 115 124 disconnect;
#X msg 104 245 /monome/grid/led/all 0;
#X msg 104 286 /monome/grid/led/set 0 0 0;
#X msg 104 267 /monome/grid/led/set 0 0 1;
#X obj 239 120 udpreceive;
#X obj 238 141 unpackOSC;
#X msg 104 307 /monome/grid/led/row 0 0 255 255;
#X msg 104 327 /monome/grid/led/row 0 5 255 255;
#X msg 104 349 /monome/grid/led/col 0 0 255 255;
#X msg 104 371 /monome/grid/led/col 13 3 255 255;
#X obj 238 163 outlet;
#X text 8 10 monome serialosc interface;
#X obj 325 34 bng 15 250 50 0 empty empty empty 17 7 0 10 -262144 -1
-1;
#X obj 443 193 shell;
#X msg 443 140 /root/scripts/start-serialosc-server.sh;
#X msg 443 165 /root/scripts/stop-serialosc-server.sh;
#X obj 465 47 loadbang;
#X obj 445 47 bng 15 250 50 0 empty empty empty 17 7 0 10 -262144 -1
-1;
#X obj 437 104 delay 100;
#X text 456 13 start server;
#X text 692 138 start server;
#X text 685 165 stop server;
#X msg 103 77 10145;
#X msg 103 99 connect localhost \$1;
#X text 152 77 server port;
#X msg 239 76 8000;
#X text 275 75 app port;
#X msg 239 99 port \$1;
#X obj 422 83 delay 250;
#X obj 27 489 udpsend;
#X obj 443 215 print;
#X text 283 12 connect to server;
#X obj 9 37 inlet oscmessage;
#X msg 104 433 /sys/rotation 180;
#X msg 104 413 /sys/rotation 90;
#X msg 104 392 /sys/rotation 0;
#X msg 103 454 /sys/rotation 270;
#X text 99 197 monome grid commands;
#X text 278 266 single LED (0 \, 0) on/off;
#X text 315 309 setting rows;
#X text 313 347 setting cols;
#X text 253 225 all LED's on/off;
#X text 207 394 device orientation;
#X obj 588 30 inlet reset;
#X connect 0 0 1 0;
#X connect 1 0 31 0;
#X connect 2 0 31 0;
#X connect 3 0 1 0;
#X connect 4 0 1 0;
#X connect 5 0 1 0;
#X connect 6 0 7 0;
#X connect 7 0 12 0;
#X connect 8 0 1 0;
#X connect 9 0 1 0;
#X connect 10 0 1 0;
#X connect 11 0 1 0;
#X connect 14 0 24 0;
#X connect 14 0 27 0;
#X connect 15 0 32 0;
#X connect 16 0 15 0;
#X connect 17 0 15 0;
#X connect 18 0 19 0;
#X connect 19 0 20 0;
#X connect 19 0 17 0;
#X connect 19 0 30 0;
#X connect 20 0 16 0;
#X connect 24 0 25 0;
#X connect 25 0 31 0;
#X connect 27 0 29 0;
#X connect 29 0 6 0;
#X connect 30 0 14 0;
#X connect 34 0 1 0;
#X connect 35 0 1 0;
#X connect 36 0 1 0;
#X connect 37 0 1 0;
#X connect 45 0 19 0;
