#N canvas 551 292 999 681 10;
#X msg 44 231 /monome/grid/led/all 1;
#X msg 56 255 /monome/grid/led/all 0;
#X obj 49 497 routeOSC /monome/grid/key;
#X obj 49 563 unpack f f f;
#X floatatom 49 596 5 0 0 0 - - -, f 5;
#X floatatom 130 596 5 0 0 0 - - -, f 5;
#X floatatom 89 596 5 0 0 0 - - -, f 5;
#X msg 122 338 1 1 1;
#X msg 123 364 1 1 0;
#X obj 111 293 tgl 15 0 empty empty empty 17 7 0 10 -262144 -1 -1 0
1;
#X msg 111 313 4 0 \$1;
#X msg 111 394 /monome/grid/led/set \$1 \$2 \$3;
#X msg 56 255 /monome/grid/led/all 0;
#X obj 41 133 bng 15 250 50 0 empty empty empty 17 7 0 10 -262144 -1
-1;
#X obj 59 188 delay 500;
#X obj 289 533 loadbang;
#X text 287 511 screen lines;
#X obj 292 613 s screenLine2;
#X msg 291 590 x \$1 y \$2 s \$3;
#X msg 291 554 \; screenLine1 Monome Button Test \;;
#X text 40 49 Monome Button and LED Test;
#X text 241 321 Toggle LED State;
#X text 218 232 Blink LED's to start;
#X text 84 474 Get/Set LED State;
#X obj 50 432 serialosc;
#X obj 44 91 r on-serialosc-load;
#X obj 397 393 loadbang;
#X msg 397 415 restart serialosc server;
#X connect 0 0 24 0;
#X connect 1 0 24 0;
#X connect 2 0 3 0;
#X connect 2 0 11 0;
#X connect 2 0 18 0;
#X connect 3 0 4 0;
#X connect 3 1 6 0;
#X connect 3 2 5 0;
#X connect 7 0 11 0;
#X connect 8 0 11 0;
#X connect 9 0 10 0;
#X connect 10 0 11 0;
#X connect 11 0 24 0;
#X connect 13 0 0 0;
#X connect 13 0 14 0;
#X connect 14 0 1 0;
#X connect 15 0 19 0;
#X connect 18 0 17 0;
#X connect 24 0 2 0;
#X connect 25 0 13 0;
#X connect 26 0 27 0;
#X connect 27 0 24 1;
