#N canvas 622 295 572 472 10;
#X msg 16 52 /monome/grid/led/all 1;
#X msg 29 76 /monome/grid/led/all 0;
#X obj 21 283 routeOSC /monome/grid/key;
#X obj 21 323 unpack f f f;
#X floatatom 21 388 5 0 0 0 - - -, f 5;
#X floatatom 102 388 5 0 0 0 - - -, f 5;
#X floatatom 61 388 5 0 0 0 - - -, f 5;
#X msg 133 154 1 1 1;
#X msg 131 180 1 1 0;
#X obj 91 107 tgl 15 0 empty empty empty 17 7 0 10 -262144 -1 -1 0
1;
#X msg 91 127 4 0 \$1;
#X msg 90 209 /monome/grid/led/set \$1 \$2 \$3;
#X msg 378 211 restart;
#X msg 29 76 /monome/grid/led/all 0;
#X obj 368 65 delay 500;
#X obj 369 18 loadbang;
#X obj 369 46 bng 15 250 50 0 empty empty empty 17 7 0 10 -262144 -1
-1;
#X obj 367 92 delay 500;
#X obj 21 246 serialosc;
#X text 8 13 monome test;
#X connect 0 0 18 0;
#X connect 1 0 18 0;
#X connect 2 0 3 0;
#X connect 2 0 11 0;
#X connect 3 0 4 0;
#X connect 3 1 6 0;
#X connect 3 2 5 0;
#X connect 7 0 11 0;
#X connect 8 0 11 0;
#X connect 9 0 10 0;
#X connect 10 0 11 0;
#X connect 11 0 18 0;
#X connect 12 0 18 1;
#X connect 14 0 0 0;
#X connect 14 0 17 0;
#X connect 15 0 16 0;
#X connect 16 0 14 0;
#X connect 17 0 1 0;
#X connect 18 0 2 0;
