#N canvas 174 65 1657 934 10;
#X msg 734 463 focus;
#X obj 781 339 vsl 15 128 0 4095 0 0 empty empty empty 0 -9 0 10 -262144
-1 -1 5884 1;
#X msg 763 497 param \$1;
#X floatatom 845 486 5 0 0 0 - - -, f 5;
#X msg 141 377 focus;
#X obj 941 133 bng 15 250 50 0 empty empty empty 17 7 0 10 -262144
-1 -1;
#X msg 965 140 stop;
#X floatatom 287 503 5 0 0 0 - - -, f 5;
#X obj 157 552 + 48;
#X obj 274 555 * 64;
#X obj 74 503 * 12;
#X msg 103 450 4;
#X msg 136 448 5;
#X msg 71 448 3;
#X msg 40 450 2;
#X msg 13 451 1;
#X obj 960 167 metro 50;
#X obj 1014 133 hsl 128 15 0 127 0 0 empty empty empty -2 -8 0 10 -262144
-1 -1 0 1;
#X obj 857 635 send bd;
#X obj 795 634 send sn;
#X obj 663 638 send hhc;
#X obj 911 636 send cva;
#X obj 970 640 send cvb;
#X obj 701 900 noteout 1;
#X obj 593 715 receive hhc;
#X obj 669 834 makenote 64 50;
#X floatatom 770 809 5 0 0 0 - - -, f 5;
#X msg 659 807 \$1 127;
#X obj 659 783 + 36;
#X obj 779 720 receive sn;
#X obj 867 725 receive bd;
#X floatatom 785 759 5 0 0 0 - - -, f 5;
#X obj 728 634 send tom;
#X obj 680 719 receive tom;
#X obj 223 728 noteout 3;
#X msg 351 692 3;
#X msg 320 694 2;
#X msg 286 694 1;
#X obj 179 446 kria;
#X obj 189 523 unpack f f f;
#X obj 219 586 makenote;
#X obj 244 628 bng 15 250 50 0 empty empty empty 17 7 0 10 -262144
-1 -1;
#X obj 280 630 bng 15 250 50 0 empty empty empty 17 7 0 10 -262144
-1 -1;
#X msg 735 752 2;
#X msg 681 750 8;
#X msg 612 749 6;
#X obj 411 314 meadowphysics;
#X obj 751 550 whitewhale;
#X obj 704 586 route 0 1 2 3;
#X obj 822 573 unpack f f;
#X obj 558 757 bng 15 250 50 0 empty empty empty 17 7 0 10 -262144
-1 -1;
#X obj 1338 376 step, f 16;
#X obj 1266 484 route 0 1;
#X obj 1264 533 print tr1;
#X obj 1272 508 print tr2;
#X msg 464 231 focus;
#X obj 371 218 bng 15 250 50 0 empty empty empty 17 7 0 10 -262144
-1 -1;
#X msg 399 219 stop;
#X obj 368 248 metro 5;
#X obj 956 204 send tick;
#X obj 600 417 receive tick;
#X obj 194 406 receive tick;
#X obj 1427 277 receive tick;
#X obj 1364 508 print mono1;
#X obj 1366 532 print mono2;
#X obj 1461 506 print pos1;
#X obj 1465 532 print pos2;
#X obj 407 337 route 1 2 6 7;
#X obj 1358 484 unpack f f;
#X obj 1456 480 unpack f f;
#X msg 1486 315 focus;
#X msg 72 320 load kria.raw;
#X msg 160 342 save kria.raw;
#X msg 494 263 load meadowphysics.raw;
#X msg 494 285 save meadowphysics.raw;
#X msg 1255 285 load step.raw;
#X msg 1255 307 save step.raw;
#X msg 907 475 load whitewhale.raw;
#X msg 907 497 save whitewhale.wraw;
#X msg 1212 731 load grid.raw;
#X msg 1212 753 save grid.raw;
#X obj 1258 853 grid;
#X msg 1356 771 led 0 0 \$1;
#X obj 1377 722 tgl 15 0 empty empty empty 17 7 0 10 -262144 -1 -1
0 1;
#X msg 1294 783 focus;
#X obj 1371 742 * 15;
#X obj 713 355 loadbang;
#X obj 883 34 loadbang;
#X obj 956 68 delay 2000;
#X obj 56 19 r knob1;
#X obj 821 321 * 4095;
#X obj 360 134 s screenLine1;
#X obj 59 69 i;
#X obj 194 29 sel 0 1 2 3 4 5, f 83;
#X obj 1132 66 * 1000;
#X obj 1106 204 s screenLine2;
#X obj 1145 30 r knob2;
#X obj 1142 99 i;
#X obj 56 94 change;
#X msg 158 70 1: kria;
#X msg 241 70 1: meadowphysics;
#X msg 393 75 1: whitewhale;
#X msg 508 78 1: step;
#X msg 612 75 1: grid;
#X obj 62 42 * 5;
#X obj 1265 453 spigot 1;
#X obj 1355 456 spigot 1;
#X obj 1457 449 spigot 1;
#X obj 1486 753 unpack s f f f;
#X obj 1582 785 sel 1;
#X obj 1517 838 pack f f f;
#X msg 1582 809 15;
#X msg 1516 865 led \$1 \$2 \$3;
#X obj 1435 901 s screenLine5;
#X msg 1099 163 2: Param \$1;
#X obj 1292 96 i;
#X obj 1295 27 r knob3;
#X obj 833 279 r knob4;
#X obj 831 414 s screenLine4;
#X msg 830 386 4: Param \$1;
#X msg 1250 160 3: Param \$1;
#X obj 1256 201 s screenLine3;
#X obj 1282 63 * 500;
#X connect 0 0 47 0;
#X connect 1 0 2 0;
#X connect 1 0 3 0;
#X connect 2 0 47 0;
#X connect 4 0 38 0;
#X connect 5 0 16 0;
#X connect 6 0 16 0;
#X connect 7 0 9 1;
#X connect 8 0 40 0;
#X connect 9 0 40 1;
#X connect 10 0 8 1;
#X connect 11 0 10 0;
#X connect 12 0 10 0;
#X connect 13 0 10 0;
#X connect 14 0 10 0;
#X connect 15 0 10 0;
#X connect 16 0 59 0;
#X connect 17 0 16 1;
#X connect 24 0 45 0;
#X connect 24 0 50 0;
#X connect 25 0 23 0;
#X connect 25 1 23 1;
#X connect 26 0 25 2;
#X connect 27 0 25 0;
#X connect 28 0 27 0;
#X connect 29 0 43 0;
#X connect 30 0 31 0;
#X connect 31 0 28 0;
#X connect 33 0 44 0;
#X connect 35 0 34 2;
#X connect 36 0 34 2;
#X connect 37 0 34 2;
#X connect 38 0 39 0;
#X connect 39 0 8 0;
#X connect 39 1 9 0;
#X connect 39 2 40 2;
#X connect 40 0 34 0;
#X connect 40 0 41 0;
#X connect 40 1 34 1;
#X connect 40 1 42 0;
#X connect 43 0 28 0;
#X connect 44 0 28 0;
#X connect 45 0 28 0;
#X connect 46 0 67 0;
#X connect 47 0 48 0;
#X connect 47 1 49 0;
#X connect 48 0 20 0;
#X connect 48 1 32 0;
#X connect 48 2 19 0;
#X connect 48 3 18 0;
#X connect 49 0 21 0;
#X connect 49 1 22 0;
#X connect 51 0 105 0;
#X connect 51 1 106 0;
#X connect 51 2 107 0;
#X connect 52 0 53 0;
#X connect 52 1 54 0;
#X connect 55 0 46 0;
#X connect 56 0 58 0;
#X connect 57 0 58 0;
#X connect 58 0 46 0;
#X connect 60 0 47 0;
#X connect 61 0 38 0;
#X connect 62 0 51 0;
#X connect 67 0 38 0;
#X connect 67 1 38 0;
#X connect 67 2 47 0;
#X connect 67 3 47 0;
#X connect 68 0 63 0;
#X connect 68 1 64 0;
#X connect 69 0 65 0;
#X connect 69 1 66 0;
#X connect 70 0 51 0;
#X connect 71 0 38 0;
#X connect 72 0 38 0;
#X connect 73 0 46 0;
#X connect 74 0 46 0;
#X connect 75 0 51 0;
#X connect 76 0 51 0;
#X connect 77 0 47 0;
#X connect 78 0 47 0;
#X connect 79 0 81 0;
#X connect 80 0 81 0;
#X connect 81 0 108 0;
#X connect 81 0 113 0;
#X connect 82 0 81 0;
#X connect 83 0 85 0;
#X connect 84 0 81 0;
#X connect 85 0 82 0;
#X connect 86 0 0 0;
#X connect 87 0 5 0;
#X connect 87 0 88 0;
#X connect 87 0 56 0;
#X connect 88 0 5 0;
#X connect 89 0 104 0;
#X connect 90 0 1 0;
#X connect 90 0 119 0;
#X connect 92 0 98 0;
#X connect 93 0 99 0;
#X connect 93 0 4 0;
#X connect 93 1 100 0;
#X connect 93 1 55 0;
#X connect 93 2 101 0;
#X connect 93 2 0 0;
#X connect 93 3 102 0;
#X connect 93 3 70 0;
#X connect 93 4 103 0;
#X connect 94 0 97 0;
#X connect 96 0 94 0;
#X connect 97 0 114 0;
#X connect 97 0 16 1;
#X connect 98 0 93 0;
#X connect 99 0 91 0;
#X connect 100 0 91 0;
#X connect 101 0 91 0;
#X connect 102 0 91 0;
#X connect 103 0 91 0;
#X connect 103 0 84 0;
#X connect 104 0 92 0;
#X connect 108 1 110 0;
#X connect 108 2 110 1;
#X connect 108 3 109 0;
#X connect 109 0 111 0;
#X connect 109 1 110 2;
#X connect 110 0 112 0;
#X connect 111 0 110 2;
#X connect 112 0 81 0;
#X connect 114 0 95 0;
#X connect 115 0 120 0;
#X connect 115 0 58 1;
#X connect 116 0 122 0;
#X connect 117 0 90 0;
#X connect 119 0 118 0;
#X connect 120 0 121 0;
#X connect 122 0 115 0;
