#N canvas 812 50 1104 648 10;
#N canvas 153 353 655 655 monome-test 1;
#X msg 37 189 /monome/grid/led/all 1;
#X msg 49 213 /monome/grid/led/all 0;
#X obj 42 455 routeOSC /monome/grid/key;
#X obj 42 521 unpack f f f;
#X floatatom 42 554 5 0 0 0 - - -, f 5;
#X floatatom 123 554 5 0 0 0 - - -, f 5;
#X floatatom 82 554 5 0 0 0 - - -, f 5;
#X msg 115 296 1 1 1;
#X msg 116 322 1 1 0;
#X obj 104 251 tgl 15 0 empty empty empty 17 7 0 10 -262144 -1 -1 0
1;
#X msg 104 271 4 0 \$1;
#X msg 104 352 /monome/grid/led/set \$1 \$2 \$3;
#X msg 49 213 /monome/grid/led/all 0;
#X obj 34 91 bng 15 250 50 0 empty empty empty 17 7 0 10 -262144 -1
-1;
#X obj 52 146 delay 500;
#X text 284 524 screen lines;
#X msg 284 548 x \$1 y \$2 s \$3;
#X text 234 279 Toggle LED State;
#X text 211 190 Blink LED's to start;
#X text 77 432 Get/Set LED State;
#X obj 43 390 serialosc;
#X obj 34 35 r on-serialosc-load;
#X msg 390 373 restart serialosc server;
#X obj 423 209 inlet test;
#X obj 409 275 t b;
#X obj 286 570 s screenLine4;
#X obj 34 63 delay 500;
#X connect 0 0 20 0;
#X connect 1 0 20 0;
#X connect 2 0 3 0;
#X connect 2 0 11 0;
#X connect 2 0 16 0;
#X connect 3 0 4 0;
#X connect 3 1 6 0;
#X connect 3 2 5 0;
#X connect 7 0 11 0;
#X connect 8 0 11 0;
#X connect 9 0 10 0;
#X connect 10 0 11 0;
#X connect 11 0 20 0;
#X connect 13 0 0 0;
#X connect 13 0 14 0;
#X connect 14 0 1 0;
#X connect 16 0 25 0;
#X connect 20 0 2 0;
#X connect 21 0 26 0;
#X connect 22 0 20 1;
#X connect 23 0 24 0;
#X connect 24 0 22 0;
#X connect 26 0 13 0;
#X restore 39 159 pd monome-test;
#X obj 410 367 shell;
#X obj 293 373 i;
#X obj 331 373 + 1;
#X obj 293 399 % 4;
#X msg 293 289 1;
#X msg 238 311 0;
#X obj 640 27 loadbang;
#X obj 640 59 bng 15 250 50 0 empty empty empty 17 7 0 10 -262144 -1
-1;
#X obj 238 488 s led;
#X obj 292 420 + 4;
#X obj 443 458 print STDOUT;
#X msg 410 306 /usbdrive/Patches/Monome-Installer/install.sh;
#X obj 293 132 r aux;
#X obj 293 165 sel 1;
#X obj 293 211 sel 0;
#X obj 270 228 bng 15 250 50 0 empty empty empty 17 7 0 10 -262144
-1 -1;
#X msg 327 186 1;
#X msg 362 186 0;
#X obj 293 187 i 0;
#X text 39 29 Monome Installer;
#X obj 238 289 r done;
#X obj 472 390 bng 15 250 50 0 empty empty empty 17 7 0 10 -262144
-1 -1;
#X obj 442 412 s done;
#X obj 442 390 t b;
#X obj 410 503 s screenLine4;
#X obj 362 164 r done;
#X obj 39 132 r done;
#X text 37 52 This patch installs serialosc and libmonome on your Organelle
OS. When complete \, your Monome grid should blink and button presses
should turn on lights and make sounds.;
#X msg 427 334 /usbdrive/Patches/Monome-Installer/uninstall.sh;
#X obj 293 347 metro 150;
#X msg 640 98 \; screenLine1 Monome Installer \; screenLine2 \; screenLine3
\; screenLine4 Press AUX to start \; screenLine5 \;;
#X msg 35 488 \; screenLine4 ... Done! \;;
#X connect 1 0 11 0;
#X connect 1 0 25 0;
#X connect 1 1 24 0;
#X connect 2 0 3 0;
#X connect 2 0 4 0;
#X connect 3 0 2 1;
#X connect 4 0 10 0;
#X connect 5 0 12 0;
#X connect 5 0 30 0;
#X connect 6 0 9 0;
#X connect 6 0 30 0;
#X connect 7 0 8 0;
#X connect 8 0 31 0;
#X connect 10 0 9 0;
#X connect 12 0 1 0;
#X connect 13 0 14 0;
#X connect 14 0 19 0;
#X connect 15 0 16 0;
#X connect 15 0 17 0;
#X connect 15 0 5 0;
#X connect 17 0 19 1;
#X connect 18 0 19 1;
#X connect 19 0 15 0;
#X connect 21 0 6 0;
#X connect 21 0 32 0;
#X connect 22 0 23 0;
#X connect 24 0 23 0;
#X connect 26 0 18 0;
#X connect 27 0 0 0;
#X connect 29 0 1 0;
#X connect 30 0 2 0;
