#N canvas 407 316 1104 648 10;
#N canvas 593 133 1212 816 monome-test 0;
#X msg 37 189 /monome/grid/led/all 1;
#X msg 49 213 /monome/grid/led/all 0;
#X obj 43 608 routeOSC /monome/grid/key;
#X obj 43 674 unpack f f f;
#X floatatom 43 707 5 0 0 0 - - -, f 5;
#X floatatom 124 707 5 0 0 0 - - -, f 5;
#X floatatom 83 707 5 0 0 0 - - -, f 5;
#X msg 115 296 1 1 1;
#X msg 116 322 1 1 0;
#X obj 104 251 tgl 15 0 empty empty empty 17 7 0 10 -262144 -1 -1 0
1;
#X msg 93 273 4 0 \$1;
#X msg 104 352 /monome/grid/led/set \$1 \$2 \$3;
#X msg 49 213 /monome/grid/led/all 0;
#X obj 34 91 bng 15 250 50 0 empty empty empty 17 7 0 10 -262144 -1
-1;
#X obj 52 146 delay 500;
#X text 285 677 screen lines;
#X msg 285 701 x \$1 y \$2 s \$3;
#X text 234 279 Toggle LED State;
#X text 211 190 Blink LED's to start;
#X text 78 585 Get/Set LED State;
#X obj 44 543 serialosc;
#X obj 34 35 r on-serialosc-load;
#X msg 388 368 restart serialosc server;
#X obj 387 327 inlet test;
#X obj 388 347 t b;
#X obj 34 63 delay 500;
#N canvas 457 169 1029 786 lightshow 0;
#X obj 270 71 bng 15 250 50 0 empty empty flash_led_routine 17 7 0
10 -262144 -1 -1;
#X obj 298 325 pack 0;
#X msg 473 79 stop;
#X obj 105 400 + 8;
#X obj 105 421 pack 0;
#X obj 224 249 s led;
#X msg 153 432 /monome/grid/led/row 0 \$1 255 255;
#X msg 153 454 /monome/grid/led/row 0 \$1 255 255;
#X msg 132 490 /monome/grid/led/col \$1 0 255 255;
#X msg 136 513 /monome/grid/led/col \$1 0 255 255;
#X obj 251 216 % 7;
#X obj 330 171 f;
#X obj 375 172 + 1;
#X msg 412 210 0;
#X msg 455 427 /monome/grid/led/row 0 \$1 0 0;
#X obj 294 297 spigot;
#X obj 353 277 tgl 15 1 empty empty empty 17 7 0 10 -262144 -1 -1 1
1;
#X obj 403 306 spigot;
#X obj 472 283 tgl 15 0 empty empty empty 17 7 0 10 -262144 -1 -1 0
1;
#X obj 454 453 + 8;
#X obj 454 474 pack 0;
#X msg 461 499 /monome/grid/led/row 0 \$1 0 0;
#X obj 405 330 pack 0;
#X obj 328 216 sel 7;
#X obj 332 138 metro 150;
#X obj 30 623 outlet serialosc;
#X obj 142 52 inlet start;
#X obj 492 46 inlet stop;
#X msg 482 221 0;
#X msg 469 180 1;
#X msg 62 178 /monome/grid/led/all 0;
#X msg 112 225 0;
#X connect 0 0 24 0;
#X connect 0 0 13 0;
#X connect 0 0 29 0;
#X connect 0 0 28 0;
#X connect 0 0 30 0;
#X connect 1 0 6 0;
#X connect 1 0 8 0;
#X connect 2 0 24 0;
#X connect 2 0 30 0;
#X connect 2 0 31 0;
#X connect 3 0 4 0;
#X connect 4 0 9 0;
#X connect 4 0 7 0;
#X connect 6 0 25 0;
#X connect 7 0 25 0;
#X connect 8 0 25 0;
#X connect 9 0 25 0;
#X connect 10 0 5 0;
#X connect 11 0 12 0;
#X connect 11 0 15 0;
#X connect 11 0 17 0;
#X connect 11 0 23 0;
#X connect 11 0 10 0;
#X connect 12 0 11 1;
#X connect 13 0 11 1;
#X connect 14 0 25 0;
#X connect 15 0 1 0;
#X connect 15 0 3 0;
#X connect 16 0 15 1;
#X connect 17 0 22 0;
#X connect 18 0 17 1;
#X connect 19 0 20 0;
#X connect 20 0 21 0;
#X connect 21 0 25 0;
#X connect 22 0 19 0;
#X connect 22 0 14 0;
#X connect 23 0 13 0;
#X connect 23 0 16 0;
#X connect 23 0 18 0;
#X connect 24 0 11 0;
#X connect 26 0 0 0;
#X connect 27 0 2 0;
#X connect 28 0 18 0;
#X connect 29 0 16 0;
#X connect 30 0 25 0;
#X connect 31 0 5 0;
#X restore 798 487 pd lightshow;
#X obj 832 245 r aux;
#X obj 288 723 s screenLine3;
#X obj 893 294 r done;
#X obj 832 336 spigot;
#X msg 882 318 1;
#X obj 832 361 tgl 15 0 empty empty empty 17 7 0 10 -262144 -1 -1 0
1;
#X obj 832 311 sel 1;
#X obj 831 386 sel 1;
#X text 832 224 lightshow;
#X obj 790 439 delay 1000;
#X connect 0 0 20 0;
#X connect 1 0 20 0;
#X connect 2 0 3 0;
#X connect 2 0 16 0;
#X connect 2 0 11 0;
#X connect 3 0 4 0;
#X connect 3 1 6 0;
#X connect 3 2 5 0;
#X connect 7 0 11 0;
#X connect 8 0 11 0;
#X connect 9 0 10 0;
#X connect 10 0 11 0;
#X connect 11 0 20 0;
#X connect 13 0 0 0;
#X connect 13 0 14 0;
#X connect 14 0 1 0;
#X connect 16 0 28 0;
#X connect 20 0 2 0;
#X connect 21 0 25 0;
#X connect 22 0 20 1;
#X connect 23 0 24 0;
#X connect 24 0 22 0;
#X connect 25 0 13 0;
#X connect 26 0 20 0;
#X connect 27 0 33 0;
#X connect 29 0 31 0;
#X connect 30 0 32 0;
#X connect 31 0 30 1;
#X connect 32 0 34 0;
#X connect 33 0 30 0;
#X connect 34 0 20 1;
#X connect 34 0 36 0;
#X connect 34 1 26 1;
#X connect 36 0 26 0;
#X restore 473 143 pd monome-test;
#X obj 460 367 shell;
#X obj 343 373 i;
#X obj 381 373 + 1;
#X obj 343 399 % 4;
#X msg 343 289 1;
#X msg 288 311 0;
#X obj 690 27 loadbang;
#X obj 690 59 bng 15 250 50 0 empty empty empty 17 7 0 10 -262144 -1
-1;
#X obj 288 488 s led;
#X obj 342 420 + 4;
#X obj 493 458 print STDOUT;
#X msg 460 306 /usbdrive/Patches/Monome-Installer/install.sh;
#X obj 343 132 r aux;
#X obj 343 185 sel 1;
#X obj 343 231 sel 0;
#X obj 320 248 bng 15 250 50 0 empty empty empty 17 7 0 10 -262144
-1 -1;
#X msg 377 206 1;
#X msg 412 206 0;
#X obj 343 207 i 0;
#X text 18 16 Monome Installer;
#X obj 288 289 r done;
#X obj 522 390 bng 15 250 50 0 empty empty empty 17 7 0 10 -262144
-1 -1;
#X obj 492 412 s done;
#X obj 492 390 t b;
#X obj 460 503 s screenLine4;
#X obj 412 184 r done;
#X msg 477 334 /usbdrive/Patches/Monome-Installer/uninstall.sh;
#X obj 343 347 metro 150;
#X msg 690 98 \; screenLine1 Monome Installer \; screenLine2 \; screenLine3
\; screenLine4 Press AUX to start \; screenLine5 \;;
#X msg 396 137 0;
#X obj 343 159 spigot 1;
#X obj 396 115 r done;
#X text 16 39 This patch installs serialosc and libmonome on your Organelle
OS. When complete \, your PureData should alloq your Monome grid to
send OSC messages through serialosc;
#X msg 13 487 \; screenLine2 ... Done! \; screenLine3 Unplug/Plug in
Monome \; screenLine4 Press AUX to toggle \; screenLine5 Lightshow
\;;
#X connect 1 0 11 0;
#X connect 1 0 25 0;
#X connect 1 1 24 0;
#X connect 2 0 3 0;
#X connect 2 0 4 0;
#X connect 3 0 2 1;
#X connect 4 0 10 0;
#X connect 5 0 12 0;
#X connect 5 0 28 0;
#X connect 6 0 9 0;
#X connect 6 0 28 0;
#X connect 7 0 8 0;
#X connect 8 0 29 0;
#X connect 10 0 9 0;
#X connect 12 0 1 0;
#X connect 13 0 31 0;
#X connect 14 0 19 0;
#X connect 15 0 16 0;
#X connect 15 0 17 0;
#X connect 15 0 5 0;
#X connect 17 0 19 1;
#X connect 18 0 19 1;
#X connect 19 0 15 0;
#X connect 21 0 6 0;
#X connect 21 0 34 0;
#X connect 22 0 23 0;
#X connect 24 0 23 0;
#X connect 26 0 18 0;
#X connect 27 0 1 0;
#X connect 28 0 2 0;
#X connect 30 0 31 1;
#X connect 31 0 14 0;
#X connect 32 0 30 0;
#X connect 32 0 0 0;
